<svg width="50" height="50" viewBox="0 0 50 50" fill="none" xmlns="http://www.w3.org/2000/svg">
<g filter="url(#filter0_f_7_3572)">
<circle cx="25" cy="25" r="24" fill="#EEDBFF"/>
</g>
<path d="M34.75 17.3368C34.0328 17.7176 33.2524 17.9917 32.4485 18.0985C33.2831 17.4881 33.9081 16.5238 34.2063 15.3864C33.4231 15.96 32.5651 16.3621 31.6703 16.5751C31.2964 16.083 30.8441 15.6909 30.3417 15.4234C29.8392 15.1558 29.2974 15.0185 28.75 15.02C26.5352 15.02 24.7539 17.23 24.7539 19.9421C24.7539 20.3229 24.7914 20.7037 24.8524 21.0701C21.536 20.8566 18.5781 18.9063 16.6117 15.9202C16.2534 16.6735 16.0657 17.5313 16.068 18.4043C16.068 20.1123 16.7735 21.6183 17.8492 22.504C17.2153 22.4733 16.5961 22.2588 16.0422 21.878V21.9386C16.0422 24.3303 17.4156 26.3124 19.2461 26.7683C18.9024 26.8782 18.5489 26.9344 18.1938 26.9356C17.9336 26.9356 17.6875 26.9039 17.4391 26.8606C17.9453 28.8109 19.4196 30.2275 21.175 30.2737C19.8016 31.598 18.0813 32.3769 16.2133 32.3769C15.8781 32.3769 15.5688 32.3625 15.2477 32.3163C17.0196 33.7156 19.1219 34.5235 21.386 34.5235C28.736 34.5235 32.7578 27.0279 32.7578 20.522C32.7578 20.3085 32.7578 20.095 32.7461 19.8815C33.5242 19.1804 34.2063 18.312 34.75 17.3368Z" fill="#7B38C8"/>
<defs>
<filter id="filter0_f_7_3572" x="0.7" y="0.7" width="48.6" height="48.6" filterUnits="userSpaceOnUse" color-interpolation-filters="sRGB">
<feFlood flood-opacity="0" result="BackgroundImageFix"/>
<feBlend mode="normal" in="SourceGraphic" in2="BackgroundImageFix" result="shape"/>
<feGaussianBlur stdDeviation="0.15" result="effect1_foregroundBlur_7_3572"/>
</filter>
</defs>
</svg>